<svg xmlns="http://www.w3.org/2000/svg" xmlns:xlink="http://www.w3.org/1999/xlink" width="500" zoomAndPan="magnify" viewBox="0 0 375 374.999991" height="500" preserveAspectRatio="xMidYMid meet" version="1.0"><defs><clipPath id="dabb97c36b"><path d="M 3 2.996094 L 372.371094 2.996094 L 372.371094 371.996094 L 3 371.996094 Z M 3 2.996094 " clip-rule="nonzero"/></clipPath></defs><g clip-path="url(#dabb97c36b)"><path fill="#000000" d="M 268.875 245.308594 L 211.34375 278.816406 C 209.144531 280.101562 206.914062 281.085938 204.617188 281.785156 C 205.324219 280.367188 205.902344 278.832031 206.34375 277.1875 C 209.402344 265.777344 202.632812 253.863281 190.933594 250.074219 C 190.679688 249.992188 190.417969 249.925781 190.15625 249.878906 C 173.691406 246.910156 157.410156 241.023438 144.332031 236.292969 C 139.765625 234.640625 135.457031 233.085938 131.785156 231.894531 C 116.738281 227.011719 103.21875 233.007812 91.972656 239.519531 L 49.914062 263.871094 L 46.300781 257.488281 C 42.382812 250.566406 33.566406 248.121094 26.644531 252.039062 L 10.503906 261.175781 C 7.160156 263.066406 4.75 266.15625 3.71875 269.875 C 2.6875 273.59375 3.164062 277.484375 5.054688 280.828125 L 52.511719 364.683594 C 55.160156 369.367188 60.054688 372 65.085938 372 C 67.488281 372 69.925781 371.398438 72.164062 370.132812 L 88.304688 360.996094 C 91.652344 359.105469 94.058594 356.011719 95.089844 352.292969 C 96.121094 348.574219 95.644531 344.683594 93.753906 341.339844 L 89.273438 333.425781 L 98 328.386719 L 171.34375 348.039062 C 175.484375 349.152344 179.605469 349.703125 183.65625 349.703125 C 191.851562 349.703125 199.769531 347.445312 207.007812 342.988281 L 311.40625 278.699219 C 321.296875 272.609375 324.449219 257.289062 318.023438 246.558594 C 314.914062 241.363281 302.167969 225.917969 268.875 245.308594 Z M 83.621094 349.113281 C 83.515625 349.492188 83.222656 350.195312 82.445312 350.636719 L 66.300781 359.773438 C 65.113281 360.445312 63.542969 360.007812 62.871094 358.820312 L 15.414062 274.964844 C 14.972656 274.1875 15.085938 273.433594 15.191406 273.054688 C 15.292969 272.675781 15.585938 271.972656 16.367188 271.535156 L 32.507812 262.398438 C 32.886719 262.183594 33.308594 262.082031 33.722656 262.082031 C 34.609375 262.082031 35.484375 262.542969 35.941406 263.351562 L 83.394531 347.203125 C 83.835938 347.984375 83.726562 348.734375 83.621094 349.113281 Z M 305.167969 268.5625 L 200.765625 332.851562 C 192.691406 337.824219 183.828125 339.066406 174.425781 336.542969 L 98.699219 316.253906 C 97.175781 315.84375 95.550781 316.058594 94.183594 316.847656 L 83.410156 323.066406 L 55.777344 274.234375 L 97.9375 249.820312 C 107.363281 244.363281 117.539062 239.789062 128.113281 243.214844 C 131.597656 244.347656 135.621094 245.800781 140.285156 247.488281 C 153.671875 252.328125 170.3125 258.34375 187.605469 261.511719 C 193.15625 263.484375 196.257812 268.839844 194.84375 274.109375 C 192.984375 281.050781 187.148438 281.914062 182.488281 281.382812 C 174.066406 279.648438 166.046875 277.359375 157.5625 274.9375 C 153.515625 273.78125 149.335938 272.585938 145.035156 271.433594 C 141.863281 270.585938 138.597656 272.46875 137.746094 275.644531 C 136.894531 278.816406 138.777344 282.082031 141.953125 282.933594 C 146.160156 284.058594 150.292969 285.242188 154.292969 286.382812 C 163.089844 288.894531 171.398438 291.265625 180.359375 293.101562 C 180.398438 293.109375 180.4375 293.109375 180.476562 293.117188 C 180.515625 293.125 180.554688 293.136719 180.597656 293.144531 L 187.753906 294.304688 C 198.652344 296.050781 208.328125 294.347656 217.332031 289.105469 L 274.863281 255.59375 C 290.96875 246.214844 303.289062 245.121094 307.8125 252.675781 C 310.902344 257.835938 309.570312 265.851562 305.167969 268.5625 Z M 36.773438 277.855469 C 37.234375 281.007812 35.054688 283.933594 31.90625 284.390625 C 28.757812 284.851562 25.828125 282.671875 25.371094 279.523438 C 24.910156 276.375 27.089844 273.449219 30.238281 272.988281 C 33.386719 272.527344 36.3125 274.707031 36.773438 277.855469 Z M 372.132812 159.3125 C 369.242188 132.277344 351.070312 110.378906 326.722656 101.753906 C 335.636719 94.832031 341.394531 84.023438 341.394531 71.886719 C 341.394531 51.042969 324.4375 34.089844 303.597656 34.089844 C 282.757812 34.089844 265.800781 51.042969 265.800781 71.886719 C 265.800781 84.03125 271.5625 94.847656 280.492188 101.769531 C 279.535156 102.109375 278.582031 102.460938 277.640625 102.84375 C 269.511719 87.804688 256.066406 76.363281 240.089844 70.679688 C 249.019531 63.761719 254.785156 52.941406 254.785156 40.792969 C 254.785156 19.953125 237.828125 2.996094 216.988281 2.996094 C 196.148438 2.996094 179.191406 19.953125 179.191406 40.796875 C 179.191406 52.941406 184.957031 63.761719 193.886719 70.679688 C 177.914062 76.367188 164.46875 87.804688 156.339844 102.839844 C 155.398438 102.457031 154.453125 102.097656 153.5 101.757812 C 162.417969 94.835938 168.175781 84.027344 168.175781 71.886719 C 168.175781 51.046875 151.222656 34.089844 130.378906 34.089844 C 109.539062 34.089844 92.582031 51.046875 92.582031 71.886719 C 92.582031 84.023438 98.339844 94.835938 107.253906 101.753906 C 82.90625 110.378906 64.734375 132.277344 61.839844 159.3125 C 61.660156 160.992188 62.203125 162.667969 63.332031 163.921875 C 64.460938 165.179688 66.070312 165.898438 67.757812 165.898438 L 130 165.898438 C 132.675781 181.917969 143.035156 198.898438 160.902344 216.480469 C 180.476562 235.742188 203.402344 250.050781 212.347656 255.304688 C 212.347656 255.304688 212.351562 255.308594 212.351562 255.308594 C 213.800781 256.160156 215.394531 256.585938 216.984375 256.585938 C 218.578125 256.585938 220.171875 256.15625 221.625 255.304688 C 230.574219 250.046875 253.503906 235.742188 273.074219 216.476562 C 290.941406 198.894531 301.300781 181.917969 303.976562 165.898438 L 366.214844 165.898438 C 367.90625 165.898438 369.515625 165.179688 370.644531 163.921875 C 371.773438 162.667969 372.316406 160.992188 372.132812 159.3125 Z M 277.703125 71.886719 C 277.703125 57.609375 289.320312 45.992188 303.597656 45.992188 C 317.875 45.992188 329.492188 57.609375 329.492188 71.886719 C 329.492188 86.164062 317.878906 97.777344 303.605469 97.78125 C 303.601562 97.78125 303.601562 97.78125 303.597656 97.78125 C 303.59375 97.78125 303.59375 97.78125 303.589844 97.78125 C 289.3125 97.777344 277.703125 86.164062 277.703125 71.886719 Z M 216.988281 14.898438 C 231.265625 14.898438 242.882812 26.515625 242.882812 40.796875 C 242.882812 55.074219 231.265625 66.691406 216.988281 66.691406 C 202.710938 66.691406 191.09375 55.074219 191.09375 40.796875 C 191.09375 26.515625 202.710938 14.898438 216.988281 14.898438 Z M 216.988281 78.59375 C 238.707031 78.59375 258.148438 90.875 267.742188 109.589844 C 250.914062 106.058594 232.4375 111.722656 216.988281 125.34375 C 201.539062 111.722656 183.0625 106.054688 166.230469 109.589844 C 175.828125 90.875 195.265625 78.59375 216.988281 78.59375 Z M 104.484375 71.886719 C 104.484375 57.609375 116.101562 45.992188 130.378906 45.992188 C 144.65625 45.992188 156.273438 57.609375 156.273438 71.886719 C 156.273438 86.164062 144.664062 97.777344 130.386719 97.78125 C 130.386719 97.78125 130.382812 97.78125 130.378906 97.78125 C 130.375 97.78125 130.375 97.78125 130.371094 97.78125 C 116.097656 97.777344 104.484375 86.164062 104.484375 71.886719 Z M 130.371094 109.6875 C 130.375 109.6875 130.375 109.6875 130.378906 109.6875 C 130.382812 109.6875 130.386719 109.6875 130.386719 109.6875 C 137.773438 109.6875 144.890625 111.058594 151.609375 113.765625 C 151.394531 114.414062 151.179688 115.066406 150.980469 115.726562 C 138.28125 123.738281 130.378906 137.65625 129.402344 153.992188 L 74.769531 153.992188 C 80.574219 128.320312 103.410156 109.691406 130.371094 109.6875 Z M 292.773438 158.292969 C 292.222656 188.78125 251.925781 223.414062 216.988281 244.21875 C 182.050781 223.414062 141.757812 188.785156 141.203125 158.296875 C 140.90625 142 148.769531 128.894531 162.234375 123.238281 C 166.664062 121.378906 171.367188 120.472656 176.179688 120.472656 C 188.578125 120.472656 201.707031 126.488281 212.742188 137.710938 C 213.863281 138.847656 215.390625 139.488281 216.988281 139.488281 C 218.582031 139.488281 220.113281 138.847656 221.230469 137.710938 C 236.546875 122.132812 255.898438 116.585938 271.738281 123.238281 C 285.203125 128.894531 293.066406 141.996094 292.773438 158.292969 Z M 304.574219 153.992188 C 303.597656 137.660156 295.691406 123.742188 282.996094 115.730469 C 282.796875 115.070312 282.582031 114.417969 282.367188 113.765625 C 289.085938 111.058594 296.199219 109.6875 303.589844 109.6875 C 303.589844 109.6875 303.59375 109.6875 303.597656 109.6875 C 303.597656 109.6875 303.601562 109.6875 303.605469 109.6875 C 330.566406 109.691406 353.402344 128.320312 359.207031 153.992188 Z M 304.574219 153.992188 " fill-opacity="1" fill-rule="nonzero"/></g></svg>