<svg xmlns="http://www.w3.org/2000/svg" xmlns:xlink="http://www.w3.org/1999/xlink" width="500" zoomAndPan="magnify" viewBox="0 0 375 374.999991" height="500" preserveAspectRatio="xMidYMid meet" version="1.0"><rect x="-37.5" width="450" fill="#ffffff" y="-37.499999" height="449.999989" fill-opacity="1"/><rect x="-37.5" width="450" fill="#ffffff" y="-37.499999" height="449.999989" fill-opacity="1"/><path fill="#d69125" d="M 30.523438 374.089844 L 257.402344 147.207031 L 227.785156 117.589844 L 0.917969 344.472656 C 0.121094 345.269531 0 346.183594 0 346.660156 C 0 347.136719 0.121094 348.058594 0.917969 348.855469 L 26.144531 374.082031 C 26.941406 374.878906 27.863281 375 28.339844 375 C 28.816406 375 29.730469 374.878906 30.523438 374.089844 Z M 30.523438 374.089844 " fill-opacity="1" fill-rule="nonzero"/><path fill="#d69125" d="M 374.054688 122.992188 L 348.648438 97.585938 C 345.597656 94.640625 343.863281 90.441406 343.863281 85.855469 C 343.863281 83.992188 344.117188 82.277344 344.636719 80.613281 C 345.039062 79.367188 344.710938 78 343.816406 77.082031 L 340.441406 73.707031 L 301.285156 34.554688 L 297.851562 31.117188 C 296.886719 30.152344 294.597656 30.269531 294.601562 30.273438 C 288.488281 32.324219 281.804688 30.742188 277.40625 26.34375 L 252.046875 0.984375 C 250.941406 -0.140625 249.214844 -0.320312 247.902344 0.535156 C 241.667969 4.59375 231.878906 11.792969 220.816406 22.847656 C 212.304688 31.359375 204.75 40.511719 198.367188 50.027344 C 197.636719 51.207031 197.8125 52.960938 198.902344 54.039062 L 224.25 79.453125 C 227.34375 82.441406 229.097656 86.660156 229.097656 91.246094 C 229.097656 93.046875 228.835938 94.789062 228.316406 96.421875 C 227.914062 97.6875 228.207031 99.011719 229.085938 99.890625 L 275.101562 145.910156 C 276.515625 147.375 278.089844 146.851562 278.503906 146.707031 C 280.21875 146.136719 281.992188 145.855469 283.746094 145.855469 C 288.148438 145.855469 292.480469 147.597656 295.613281 150.816406 L 320.898438 176.042969 C 322.019531 177.179688 323.765625 177.367188 325.136719 176.519531 C 334.480469 170.25 343.628906 162.703125 352.136719 154.183594 C 363.179688 143.136719 370.371094 133.359375 374.457031 127.089844 C 375.300781 125.777344 375.128906 124.058594 374.042969 123 Z M 374.054688 122.992188 " fill-opacity="1" fill-rule="nonzero"/><path fill="#d69125" d="M 323.410156 21.972656 L 315.507812 29.832031 L 345.167969 59.492188 L 353.015625 51.601562 L 353.027344 51.589844 C 354.242188 50.378906 354.242188 48.410156 353.027344 47.203125 L 327.796875 21.972656 C 326.585938 20.773438 324.628906 20.757812 323.410156 21.972656 Z M 323.410156 21.972656 " fill-opacity="1" fill-rule="nonzero"/></svg>