<svg xmlns="http://www.w3.org/2000/svg" xmlns:xlink="http://www.w3.org/1999/xlink" width="500" zoomAndPan="magnify" viewBox="0 0 375 374.999991" height="500" preserveAspectRatio="xMidYMid meet" version="1.0"><defs><clipPath id="99277110e9"><path d="M 0 62.578125 L 375 62.578125 L 375 312.328125 L 0 312.328125 Z M 0 62.578125 " clip-rule="nonzero"/></clipPath></defs><rect x="-37.5" width="450" fill="#ffffff" y="-37.499999" height="449.999989" fill-opacity="1"/><rect x="-37.5" width="450" fill="#ffffff" y="-37.499999" height="449.999989" fill-opacity="1"/><g clip-path="url(#99277110e9)"><path fill="#d69125" d="M 41.566406 312.417969 L 333.433594 312.417969 C 356.105469 312.417969 374.65625 293.867188 374.65625 271.195312 C 374.65625 260.996094 368.546875 252.15625 359.804688 248.152344 L 359.804688 268.097656 C 359.804688 283.789062 347.035156 296.558594 331.34375 296.558594 L 43.65625 296.558594 C 27.964844 296.558594 15.195312 283.789062 15.195312 268.097656 L 15.195312 248.152344 C 6.453125 252.15625 0.34375 260.996094 0.34375 271.195312 C 0.34375 293.867188 18.894531 312.417969 41.566406 312.417969 Z M 142.917969 68.101562 C 157.199219 64.5 172.136719 62.582031 187.5 62.582031 C 202.863281 62.582031 217.800781 64.5 232.082031 68.101562 C 240.585938 70.246094 246.054688 78.355469 244.851562 87.042969 L 226.574219 219.316406 C 225.398438 227.839844 218.222656 234.089844 209.617188 234.089844 L 165.378906 234.089844 C 156.777344 234.089844 149.601562 227.839844 148.421875 219.316406 L 130.144531 87.042969 C 128.945312 78.355469 134.414062 70.246094 142.917969 68.101562 Z M 43.65625 285.21875 C 34.226562 285.21875 26.535156 277.527344 26.535156 268.097656 L 26.535156 245.875 C 26.535156 209.152344 39.007812 175.207031 59.914062 148.042969 L 85.226562 232.804688 C 86.121094 235.804688 89.273438 237.507812 92.273438 236.617188 C 95.269531 235.722656 96.976562 232.566406 96.082031 229.570312 L 68.625 137.632812 C 83.109375 121.75 100.710938 108.753906 120.4375 99.636719 L 137.1875 220.867188 C 139.140625 235 151.117188 245.433594 165.382812 245.433594 L 209.617188 245.433594 C 223.882812 245.433594 235.859375 235 237.8125 220.867188 L 254.5625 99.640625 C 274.289062 108.753906 291.890625 121.75 306.375 137.632812 L 278.917969 229.570312 C 278.023438 232.566406 279.730469 235.722656 282.730469 236.613281 C 285.726562 237.507812 288.882812 235.800781 289.773438 232.804688 L 315.085938 148.042969 C 335.992188 175.203125 348.464844 209.148438 348.464844 245.871094 L 348.464844 268.097656 C 348.464844 277.527344 340.773438 285.214844 331.34375 285.214844 L 43.65625 285.214844 Z M 43.65625 285.21875 " fill-opacity="1" fill-rule="evenodd"/></g></svg>