<svg xmlns="http://www.w3.org/2000/svg" xmlns:xlink="http://www.w3.org/1999/xlink" width="500" zoomAndPan="magnify" viewBox="0 0 375 374.999991" height="500" preserveAspectRatio="xMidYMid meet" version="1.0"><defs><clipPath id="55b37a4456"><path d="M 134 298 L 230 298 L 230 350.527344 L 134 350.527344 Z M 134 298 " clip-rule="nonzero"/></clipPath><clipPath id="055f3ce386"><path d="M 126 14.527344 L 249 14.527344 L 249 142 L 126 142 Z M 126 14.527344 " clip-rule="nonzero"/></clipPath></defs><path fill="#000000" d="M 279.914062 272.050781 C 277.320312 272.050781 275.164062 269.992188 275.070312 267.371094 C 274.96875 264.6875 277.066406 262.4375 279.738281 262.34375 C 279.941406 262.335938 300.453125 261.433594 317.882812 250.882812 C 320.175781 249.492188 323.15625 250.234375 324.546875 252.527344 C 325.9375 254.820312 325.195312 257.804688 322.902344 259.199219 C 303.257812 271.089844 281.027344 272.015625 280.089844 272.050781 C 280.03125 272.050781 279.972656 272.050781 279.914062 272.050781 Z M 279.914062 272.050781 " fill-opacity="1" fill-rule="nonzero"/><path fill="#000000" d="M 68.851562 266.621094 C 67.613281 266.621094 66.367188 266.148438 65.421875 265.195312 L 53.265625 253.023438 C 51.371094 251.125 51.371094 248.046875 53.265625 246.152344 C 55.164062 244.253906 58.238281 244.253906 60.132812 246.152344 L 72.289062 258.320312 C 74.183594 260.21875 74.183594 263.296875 72.289062 265.195312 C 71.335938 266.148438 70.089844 266.621094 68.851562 266.621094 Z M 68.851562 266.621094 " fill-opacity="1" fill-rule="nonzero"/><g clip-path="url(#55b37a4456)"><path fill="#000000" d="M 160.667969 350.578125 C 154.519531 350.578125 148.367188 348.234375 143.683594 343.542969 L 135.707031 335.558594 C 133.8125 333.660156 133.8125 330.582031 135.707031 328.683594 C 137.601562 326.785156 140.675781 326.785156 142.574219 328.683594 L 150.550781 336.671875 C 156.128906 342.261719 165.210938 342.253906 170.792969 336.671875 C 173.5 333.972656 174.988281 330.378906 174.988281 326.542969 C 174.988281 324.675781 174.636719 322.863281 173.9375 321.144531 C 173.230469 319.371094 172.167969 317.777344 170.792969 316.402344 C 168.898438 314.507812 168.898438 311.429688 170.792969 309.53125 C 172.691406 307.632812 175.765625 307.632812 177.660156 309.53125 L 195.425781 327.308594 C 198.132812 330.015625 201.730469 331.507812 205.542969 331.507812 C 209.359375 331.507812 212.957031 330.015625 215.664062 327.308594 C 218.367188 324.601562 219.859375 321 219.859375 317.171875 C 219.859375 313.34375 218.367188 309.742188 215.671875 307.042969 C 213.777344 305.144531 213.777344 302.066406 215.671875 300.167969 C 217.566406 298.269531 220.640625 298.269531 222.535156 300.167969 C 227.070312 304.707031 229.5625 310.746094 229.5625 317.171875 C 229.5625 323.597656 227.0625 329.636719 222.527344 334.183594 C 217.988281 338.71875 211.964844 341.222656 205.542969 341.222656 C 199.125 341.222656 193.101562 338.71875 188.5625 334.183594 L 184.441406 330.058594 C 183.699219 335.160156 181.359375 339.859375 177.652344 343.550781 C 172.96875 348.242188 166.816406 350.578125 160.667969 350.578125 Z M 160.667969 350.578125 " fill-opacity="1" fill-rule="nonzero"/></g><path fill="#000000" d="M 240.445312 321.886719 C 234.296875 321.886719 228.148438 319.542969 223.464844 314.851562 L 179.824219 271.164062 C 177.929688 269.269531 177.929688 266.191406 179.824219 264.292969 C 181.722656 262.394531 184.796875 262.394531 186.691406 264.292969 L 230.328125 307.980469 C 235.90625 313.570312 244.988281 313.570312 250.574219 307.980469 C 256.15625 302.394531 256.15625 293.304688 250.574219 287.710938 L 206.933594 244.027344 C 205.039062 242.128906 205.039062 239.050781 206.933594 237.152344 C 208.832031 235.253906 211.90625 235.253906 213.800781 237.152344 L 257.4375 280.839844 C 266.804688 290.21875 266.804688 305.472656 257.4375 314.84375 C 252.746094 319.542969 246.597656 321.886719 240.445312 321.886719 Z M 240.445312 321.886719 " fill-opacity="1" fill-rule="nonzero"/><path fill="#000000" d="M 261.003906 288.203125 C 254.851562 288.203125 248.703125 285.855469 244.027344 281.175781 C 242.132812 279.277344 242.132812 276.199219 244.027344 274.304688 C 245.921875 272.40625 248.996094 272.40625 250.894531 274.304688 C 256.476562 279.886719 265.550781 279.886719 271.128906 274.304688 C 273.269531 272.152344 274.65625 269.429688 275.128906 266.441406 C 275.136719 266.410156 275.136719 266.382812 275.148438 266.351562 C 275.265625 265.683594 275.324219 264.949219 275.324219 264.164062 C 275.324219 260.34375 273.832031 256.742188 271.128906 254.027344 L 201.839844 184.660156 C 196.84375 179.652344 189.511719 177.738281 182.707031 179.652344 C 179.210938 180.636719 176.066406 182.570312 173.625 185.234375 L 152.023438 208.714844 C 151.984375 208.765625 151.933594 208.804688 151.890625 208.855469 C 146.9375 213.816406 140.347656 216.546875 133.347656 216.546875 C 126.347656 216.546875 119.75 213.816406 114.796875 208.855469 C 106.585938 200.632812 104.722656 188.21875 110.171875 177.980469 C 117.113281 164.917969 129.121094 146.988281 146.910156 135.769531 C 146.980469 135.726562 147.039062 135.695312 147.105469 135.652344 C 161.738281 126.484375 177.769531 123.398438 194.753906 126.484375 C 197.332031 126.863281 232.535156 132.277344 260.195312 151.230469 L 288.53125 138.957031 C 290.992188 137.894531 293.847656 139.027344 294.910156 141.488281 C 295.972656 143.949219 294.84375 146.808594 292.382812 147.871094 L 261.550781 161.222656 C 259.984375 161.90625 258.164062 161.703125 256.78125 160.699219 C 230.3125 141.539062 193.65625 136.140625 193.289062 136.089844 C 193.21875 136.082031 193.160156 136.074219 193.101562 136.058594 C 178.476562 133.382812 164.6875 136.046875 152.101562 143.984375 C 152.042969 144.019531 151.984375 144.0625 151.925781 144.09375 C 136.027344 154.191406 125.117188 170.566406 118.75 182.542969 C 115.320312 188.996094 116.492188 196.804688 121.664062 201.984375 C 124.78125 205.105469 128.933594 206.824219 133.347656 206.824219 C 137.730469 206.824219 141.855469 205.128906 144.964844 202.042969 L 166.488281 178.648438 C 170.144531 174.65625 174.847656 171.773438 180.078125 170.296875 C 190.261719 167.421875 201.230469 170.296875 208.703125 177.785156 L 277.992188 247.15625 C 282.535156 251.707031 285.027344 257.746094 285.027344 264.164062 C 285.027344 265.496094 284.917969 266.789062 284.707031 268.003906 C 283.90625 273.003906 281.589844 277.558594 277.992188 281.167969 C 273.308594 285.855469 267.152344 288.203125 261.003906 288.203125 Z M 261.003906 288.203125 " fill-opacity="1" fill-rule="nonzero"/><path fill="#000000" d="M 84.371094 150.671875 C 82.152344 150.671875 80.15625 149.144531 79.644531 146.894531 C 79.046875 144.28125 80.679688 141.671875 83.300781 141.074219 C 113.710938 134.132812 148.023438 134.96875 149.617188 135.019531 C 152.246094 135.078125 154.359375 137.230469 154.359375 139.878906 C 154.359375 142.601562 152.101562 144.820312 149.371094 144.734375 C 147.964844 144.703125 114.757812 143.867188 85.457031 150.554688 C 85.09375 150.628906 84.730469 150.671875 84.371094 150.671875 Z M 84.371094 150.671875 " fill-opacity="1" fill-rule="nonzero"/><path fill="#000000" d="M 79.726562 285.234375 C 75.289062 285.234375 70.847656 283.539062 67.46875 280.15625 C 64.191406 276.875 62.390625 272.515625 62.390625 267.882812 C 62.390625 263.253906 64.191406 258.886719 67.46875 255.613281 L 82.238281 240.828125 C 85.515625 237.546875 89.863281 235.742188 94.496094 235.742188 C 99.128906 235.742188 103.484375 237.546875 106.753906 240.828125 C 113.507812 247.59375 113.507812 258.609375 106.753906 265.371094 C 104.855469 267.269531 101.78125 267.269531 99.886719 265.371094 C 97.992188 263.472656 97.992188 260.394531 99.886719 258.496094 C 102.859375 255.519531 102.859375 250.671875 99.886719 247.695312 C 98.445312 246.253906 96.527344 245.460938 94.488281 245.460938 C 92.449219 245.460938 90.535156 246.253906 89.085938 247.695312 L 74.320312 262.480469 C 72.878906 263.921875 72.085938 265.835938 72.085938 267.875 C 72.085938 269.917969 72.878906 271.839844 74.320312 273.28125 C 77.292969 276.257812 82.136719 276.257812 85.109375 273.28125 C 87.007812 271.382812 90.082031 271.382812 91.976562 273.28125 C 93.871094 275.179688 93.871094 278.257812 91.976562 280.15625 C 88.605469 283.539062 84.167969 285.234375 79.726562 285.234375 Z M 79.726562 285.234375 " fill-opacity="1" fill-rule="nonzero"/><path fill="#000000" d="M 92.128906 308.164062 C 87.6875 308.164062 83.25 306.46875 79.871094 303.085938 C 76.59375 299.804688 74.789062 295.453125 74.789062 290.816406 C 74.789062 286.175781 76.59375 281.816406 79.871094 278.546875 L 99.894531 258.496094 C 103.171875 255.21875 107.519531 253.414062 112.152344 253.414062 C 116.785156 253.414062 121.140625 255.21875 124.410156 258.496094 C 131.167969 265.261719 131.167969 276.277344 124.410156 283.039062 C 122.515625 284.9375 119.441406 284.9375 117.542969 283.039062 C 115.648438 281.140625 115.648438 278.0625 117.542969 276.167969 C 120.519531 273.191406 120.519531 268.339844 117.542969 265.363281 C 116.105469 263.921875 114.183594 263.128906 112.144531 263.128906 C 110.105469 263.128906 108.195312 263.921875 106.746094 265.363281 L 86.71875 285.410156 C 85.277344 286.851562 84.488281 288.773438 84.488281 290.816406 C 84.488281 292.855469 85.277344 294.769531 86.71875 296.222656 C 89.695312 299.199219 94.539062 299.199219 97.511719 296.222656 C 99.40625 294.324219 102.480469 294.324219 104.378906 296.222656 C 106.273438 298.121094 106.273438 301.199219 104.378906 303.09375 C 101.007812 306.476562 96.558594 308.164062 92.128906 308.164062 Z M 92.128906 308.164062 " fill-opacity="1" fill-rule="nonzero"/><path fill="#000000" d="M 103.957031 331.660156 C 99.515625 331.660156 95.078125 329.964844 91.699219 326.582031 C 84.941406 319.820312 84.941406 308.804688 91.699219 302.042969 L 117.542969 276.175781 C 124.300781 269.410156 135.304688 269.410156 142.058594 276.175781 C 145.335938 279.457031 147.140625 283.808594 147.140625 288.445312 C 147.140625 293.085938 145.335938 297.445312 142.058594 300.71875 L 116.222656 326.582031 C 112.835938 329.964844 108.394531 331.660156 103.957031 331.660156 Z M 129.800781 280.804688 C 127.847656 280.804688 125.894531 281.546875 124.402344 283.039062 L 98.554688 308.90625 C 95.582031 311.882812 95.582031 316.734375 98.554688 319.710938 C 101.53125 322.6875 106.375 322.6875 109.347656 319.710938 L 135.183594 293.84375 C 136.625 292.402344 137.417969 290.480469 137.417969 288.4375 C 137.417969 286.398438 136.625 284.472656 135.183594 283.03125 C 133.710938 281.546875 131.757812 280.804688 129.800781 280.804688 Z M 129.800781 280.804688 " fill-opacity="1" fill-rule="nonzero"/><path fill="#000000" d="M 129.121094 341.832031 C 124.679688 341.832031 120.238281 340.136719 116.863281 336.753906 C 110.097656 329.980469 110.097656 318.96875 116.863281 312.203125 C 118.757812 310.304688 121.832031 310.304688 123.726562 312.203125 C 125.625 314.101562 125.625 317.179688 123.726562 319.078125 C 120.753906 322.054688 120.753906 326.902344 123.734375 329.890625 C 126.710938 332.867188 131.554688 332.867188 134.527344 329.890625 L 152.867188 311.527344 C 154.308594 310.085938 155.101562 308.164062 155.101562 306.125 C 155.101562 304.082031 154.308594 302.167969 152.867188 300.726562 C 151.425781 299.285156 149.507812 298.480469 147.46875 298.480469 C 147.46875 298.480469 147.46875 298.480469 147.460938 298.480469 C 145.421875 298.480469 143.507812 299.273438 142.074219 300.71875 C 140.179688 302.613281 137.105469 302.613281 135.210938 300.71875 C 133.316406 298.820312 133.316406 295.742188 135.210938 293.84375 C 138.480469 290.570312 142.835938 288.765625 147.460938 288.765625 C 147.46875 288.765625 147.46875 288.765625 147.476562 288.765625 C 152.109375 288.765625 156.457031 290.578125 159.734375 293.851562 C 163.011719 297.132812 164.8125 301.484375 164.8125 306.125 C 164.8125 310.761719 163.011719 315.121094 159.734375 318.394531 L 141.394531 336.753906 C 138 340.136719 133.558594 341.832031 129.121094 341.832031 Z M 129.121094 341.832031 " fill-opacity="1" fill-rule="nonzero"/><path fill="#000000" d="M 337.65625 269.875 C 326.710938 269.875 316.671875 262.554688 313.703125 251.480469 L 286.433594 149.59375 C 284.726562 143.207031 285.609375 136.527344 288.929688 130.777344 C 292.246094 125.027344 297.589844 120.910156 303.957031 119.207031 L 330.578125 112.0625 C 333.164062 111.371094 335.828125 112.90625 336.519531 115.496094 L 374.105469 255.941406 C 374.796875 258.53125 373.265625 261.195312 370.679688 261.886719 L 344.058594 269.03125 C 341.925781 269.605469 339.777344 269.875 337.65625 269.875 Z M 306.476562 128.585938 C 302.609375 129.621094 299.359375 132.125 297.335938 135.636719 C 295.316406 139.144531 294.773438 143.207031 295.8125 147.078125 L 323.082031 248.96875 C 325.238281 257.011719 333.527344 261.804688 341.554688 259.644531 L 363.484375 253.757812 L 328.40625 122.699219 Z M 305.222656 123.894531 Z M 305.222656 123.894531 " fill-opacity="1" fill-rule="nonzero"/><path fill="#000000" d="M 37.277344 269.832031 C 35.164062 269.832031 33.007812 269.5625 30.867188 268.980469 L 4.246094 261.835938 C 1.660156 261.144531 0.117188 258.480469 0.816406 255.890625 L 38.40625 115.445312 C 38.742188 114.195312 39.550781 113.140625 40.664062 112.492188 C 41.777344 111.851562 43.105469 111.675781 44.34375 112.003906 L 70.964844 119.148438 C 84.167969 122.691406 92.035156 136.328125 88.496094 149.542969 L 61.226562 251.429688 C 58.261719 262.503906 48.21875 269.832031 37.277344 269.832031 Z M 33.378906 259.59375 C 41.40625 261.746094 49.695312 256.953125 51.851562 248.917969 L 79.121094 147.027344 C 81.277344 138.984375 76.492188 130.691406 68.457031 128.535156 L 46.519531 122.648438 L 11.441406 253.707031 Z M 33.378906 259.59375 " fill-opacity="1" fill-rule="nonzero"/><g clip-path="url(#055f3ce386)"><path fill="#000000" d="M 217.332031 141.632812 C 216.132812 141.632812 214.9375 141.191406 214.003906 140.308594 C 212.046875 138.46875 211.964844 135.390625 213.800781 133.441406 C 229.746094 116.507812 238.535156 95.042969 238.535156 72.980469 C 238.535156 64.066406 237.136719 55.269531 234.382812 46.792969 C 216.050781 47.605469 198.535156 40.183594 187.476562 27.421875 C 176.414062 40.183594 158.933594 47.613281 140.566406 46.792969 C 137.804688 55.269531 136.40625 64.066406 136.40625 72.980469 C 136.40625 94.640625 144.90625 115.816406 160.347656 132.589844 C 162.160156 134.5625 162.042969 137.632812 160.070312 139.457031 C 158.097656 141.277344 155.03125 141.140625 153.214844 139.175781 C 136.121094 120.597656 126.703125 97.085938 126.703125 72.980469 C 126.703125 61.695312 128.707031 50.597656 132.667969 39.980469 C 133.441406 37.90625 135.523438 36.625 137.71875 36.851562 C 139.574219 37.042969 141.453125 37.144531 143.304688 37.144531 C 159.808594 37.144531 175.175781 29.328125 183.414062 16.738281 C 184.308594 15.363281 185.839844 14.542969 187.476562 14.542969 C 189.109375 14.542969 190.632812 15.371094 191.535156 16.738281 C 199.765625 29.328125 215.132812 37.144531 231.644531 37.144531 C 233.496094 37.144531 235.375 37.042969 237.230469 36.851562 C 239.425781 36.625 241.507812 37.90625 242.285156 39.980469 C 246.242188 50.589844 248.246094 61.695312 248.246094 72.980469 C 248.246094 97.523438 238.527344 121.367188 220.878906 140.105469 C 219.910156 141.117188 218.621094 141.632812 217.332031 141.632812 Z M 217.332031 141.632812 " fill-opacity="1" fill-rule="nonzero"/></g><path fill="#000000" d="M 176.1875 114.042969 C 174.898438 114.042969 173.667969 113.53125 172.757812 112.621094 L 155.46875 95.3125 C 153.574219 93.414062 153.574219 90.335938 155.46875 88.441406 C 157.367188 86.542969 160.441406 86.542969 162.335938 88.441406 L 176.1875 102.304688 L 212.597656 65.855469 C 214.492188 63.957031 217.566406 63.957031 219.460938 65.855469 C 221.355469 67.753906 221.355469 70.832031 219.460938 72.726562 L 179.625 112.609375 C 178.703125 113.53125 177.476562 114.042969 176.1875 114.042969 Z M 176.1875 114.042969 " fill-opacity="1" fill-rule="nonzero"/></svg>