<svg xmlns="http://www.w3.org/2000/svg" xmlns:xlink="http://www.w3.org/1999/xlink" width="500" zoomAndPan="magnify" viewBox="0 0 375 374.999991" height="500" preserveAspectRatio="xMidYMid meet" version="1.0"><defs><clipPath id="24f7728618"><path d="M 0.234375 0 L 374.484375 0 L 374.484375 375 L 0.234375 375 Z M 0.234375 0 " clip-rule="nonzero"/></clipPath></defs><rect x="-37.5" width="450" fill="#ffffff" y="-37.499999" height="449.999989" fill-opacity="1"/><rect x="-37.5" width="450" fill="#ffffff" y="-37.499999" height="449.999989" fill-opacity="1"/><g clip-path="url(#24f7728618)"><path fill="#d69125" d="M 34.007812 293.390625 L 81.835938 341.21875 L 60.480469 362.570312 L 12.652344 314.746094 Z M 134.183594 193.214844 L 145.386719 204.421875 L 148.4375 207.46875 L 155.234375 214.265625 C 157.242188 216.273438 160.496094 216.273438 162.503906 214.265625 L 214.019531 162.746094 C 216.027344 160.742188 216.027344 157.484375 214.019531 155.480469 L 207.222656 148.683594 L 203.496094 144.953125 L 192.96875 134.425781 L 294.464844 32.933594 L 342.292969 80.761719 L 89.101562 333.949219 L 41.273438 286.121094 Z M 192.140625 148.136719 L 196.320312 152.316406 L 152.070312 196.566406 L 147.890625 192.386719 Z M 314.5 12.898438 L 362.328125 60.726562 L 349.558594 73.492188 L 301.730469 25.664062 Z M 60.480469 374.980469 C 61.796875 374.980469 63.113281 374.476562 64.117188 373.472656 L 92.738281 344.851562 C 92.738281 344.851562 92.742188 344.847656 92.742188 344.84375 L 353.191406 84.398438 C 353.191406 84.398438 353.195312 84.394531 353.195312 84.394531 L 373.226562 64.359375 C 373.476562 64.113281 373.6875 63.847656 373.875 63.570312 C 374.003906 63.378906 374.09375 63.175781 374.195312 62.972656 C 374.238281 62.878906 374.304688 62.785156 374.347656 62.683594 C 374.441406 62.453125 374.5 62.214844 374.558594 61.976562 C 374.582031 61.890625 374.617188 61.8125 374.636719 61.722656 C 374.765625 61.066406 374.765625 60.386719 374.636719 59.726562 C 374.617188 59.640625 374.582031 59.558594 374.558594 59.472656 C 374.5 59.238281 374.441406 59 374.347656 58.769531 C 374.304688 58.667969 374.238281 58.578125 374.195312 58.480469 C 374.09375 58.277344 374.003906 58.074219 373.875 57.882812 C 373.6875 57.605469 373.476562 57.339844 373.226562 57.09375 L 318.132812 1.996094 C 316.125 -0.0117188 312.871094 -0.0117188 310.863281 1.996094 L 290.828125 22.03125 C 290.828125 22.035156 290.828125 22.035156 290.828125 22.035156 L 182.066406 130.792969 C 180.058594 132.800781 180.058594 136.054688 182.066406 138.0625 L 184.875 140.867188 L 140.621094 185.117188 L 137.816406 182.3125 C 135.808594 180.304688 132.554688 180.304688 130.546875 182.3125 L 1.75 311.109375 C 0.785156 312.074219 0.246094 313.382812 0.246094 314.746094 C 0.246094 316.105469 0.785156 317.414062 1.75 318.378906 L 56.847656 373.472656 C 57.851562 374.476562 59.164062 374.980469 60.480469 374.980469 " fill-opacity="1" fill-rule="nonzero"/></g><path fill="#d69125" d="M 260.890625 86.539062 C 264.65625 82.773438 269.675781 80.792969 274.78125 80.792969 C 275.074219 80.792969 275.371094 80.828125 275.667969 80.839844 L 255.164062 101.34375 C 254.914062 95.941406 256.894531 90.535156 260.890625 86.539062 Z M 289.261719 81.785156 L 293.441406 85.964844 L 263.132812 116.269531 C 262.347656 115.6875 261.597656 115.042969 260.890625 114.335938 C 260.183594 113.628906 259.535156 112.875 258.953125 112.089844 Z M 288.679688 114.335938 C 284.691406 118.324219 279.292969 120.304688 273.886719 120.054688 L 294.40625 99.53125 C 294.65625 104.9375 292.675781 110.339844 288.679688 114.335938 Z M 253.621094 121.605469 C 256.007812 123.992188 258.738281 125.929688 261.691406 127.347656 C 261.703125 127.351562 261.714844 127.355469 261.726562 127.363281 C 265.886719 129.382812 270.347656 130.367188 274.78125 130.367188 C 282.546875 130.367188 290.207031 127.34375 295.949219 121.605469 C 304.894531 112.65625 307.230469 99.054688 301.84375 87.683594 C 301.835938 87.667969 301.828125 87.648438 301.820312 87.632812 C 301.78125 87.546875 301.75 87.460938 301.710938 87.378906 C 300.277344 84.390625 298.339844 81.664062 295.949219 79.273438 C 293.5625 76.882812 290.835938 74.945312 287.878906 73.53125 C 287.78125 73.484375 287.683594 73.445312 287.589844 73.402344 C 287.574219 73.394531 287.558594 73.386719 287.542969 73.382812 C 276.144531 67.996094 262.558594 70.332031 253.621094 79.273438 C 244.59375 88.300781 242.285156 102.066406 247.859375 113.5 C 249.292969 116.488281 251.230469 119.214844 253.621094 121.605469 " fill-opacity="1" fill-rule="nonzero"/><path fill="#d69125" d="M 119.816406 274.125 C 120.0625 279.527344 118.082031 284.933594 114.089844 288.925781 C 110.101562 292.914062 104.703125 294.898438 99.292969 294.648438 Z M 86.296875 288.925781 C 85.589844 288.21875 84.945312 287.46875 84.363281 286.679688 L 114.667969 256.375 L 118.847656 260.554688 L 88.542969 290.859375 C 87.753906 290.28125 87.003906 289.632812 86.296875 288.925781 Z M 86.296875 261.132812 C 90.0625 257.367188 95.085938 255.382812 100.1875 255.382812 C 100.484375 255.382812 100.777344 255.421875 101.074219 255.433594 L 80.574219 275.9375 C 80.324219 270.53125 82.304688 265.128906 86.296875 261.132812 Z M 121.359375 296.195312 C 130.304688 287.25 132.640625 273.648438 127.253906 262.277344 C 127.246094 262.257812 127.234375 262.238281 127.230469 262.222656 C 127.191406 262.140625 127.15625 262.050781 127.117188 261.96875 C 125.6875 258.980469 123.75 256.253906 121.359375 253.863281 C 118.96875 251.476562 116.242188 249.539062 113.285156 248.121094 C 113.195312 248.074219 113.097656 248.042969 113.003906 248 C 112.984375 247.988281 112.96875 247.980469 112.945312 247.972656 C 101.546875 242.589844 87.96875 244.925781 79.03125 253.863281 C 70.003906 262.890625 67.695312 276.660156 73.269531 288.089844 C 74.703125 291.078125 76.640625 293.804688 79.027344 296.195312 C 81.417969 298.585938 84.144531 300.523438 87.101562 301.9375 C 87.113281 301.945312 87.121094 301.949219 87.132812 301.957031 C 91.296875 303.976562 95.757812 304.960938 100.1875 304.960938 C 107.953125 304.960938 115.617188 301.9375 121.359375 296.195312 " fill-opacity="1" fill-rule="nonzero"/></svg>