<svg xmlns="http://www.w3.org/2000/svg" xmlns:xlink="http://www.w3.org/1999/xlink" width="500" zoomAndPan="magnify" viewBox="0 0 375 374.999991" height="500" preserveAspectRatio="xMidYMid meet" version="1.0"><rect x="-37.5" width="450" fill="#ffffff" y="-37.499999" height="449.999989" fill-opacity="1"/><rect x="-37.5" width="450" fill="#ffffff" y="-37.499999" height="449.999989" fill-opacity="1"/><path fill="#d69125" d="M 212.101562 36.695312 C 213.074219 37.476562 214.007812 38.304688 214.902344 39.175781 C 215.796875 40.050781 216.644531 40.964844 217.445312 41.921875 C 218.25 42.878906 219.003906 43.871094 219.710938 44.902344 C 220.414062 45.933594 221.070312 46.996094 221.671875 48.089844 C 222.273438 49.183594 222.816406 50.304688 223.308594 51.453125 C 223.800781 52.601562 224.234375 53.773438 224.609375 54.964844 C 224.984375 56.152344 225.300781 57.359375 225.558594 58.582031 C 225.816406 59.804688 226.015625 61.035156 226.152344 62.277344 C 226.289062 63.519531 226.363281 64.765625 226.378906 66.011719 C 226.390625 67.261719 226.34375 68.507812 226.238281 69.753906 C 226.128906 70.996094 225.960938 72.234375 225.730469 73.460938 C 225.5 74.6875 225.210938 75.902344 224.863281 77.101562 C 224.511719 78.300781 224.105469 79.480469 223.640625 80.636719 C 223.175781 81.796875 222.65625 82.929688 222.078125 84.039062 C 221.503906 85.148438 220.875 86.222656 220.191406 87.269531 C 219.511719 88.316406 218.777344 89.328125 217.996094 90.300781 C 217.214844 91.277344 216.390625 92.210938 215.515625 93.101562 C 214.644531 93.996094 213.726562 94.84375 212.773438 95.648438 C 211.816406 96.449219 210.824219 97.203125 209.792969 97.910156 C 208.761719 98.617188 207.699219 99.269531 206.605469 99.871094 C 205.507812 100.472656 204.386719 101.015625 203.238281 101.507812 C 202.089844 102 200.921875 102.433594 199.730469 102.808594 C 198.539062 103.183594 197.332031 103.503906 196.109375 103.757812 C 194.890625 104.015625 193.65625 104.214844 192.414062 104.351562 C 191.175781 104.488281 189.929688 104.5625 188.679688 104.578125 C 187.429688 104.589844 186.183594 104.542969 184.941406 104.433594 C 183.695312 104.328125 182.460938 104.15625 181.234375 103.929688 C 180.003906 103.699219 178.792969 103.410156 177.59375 103.058594 C 176.394531 102.710938 175.214844 102.304688 174.054688 101.839844 C 172.894531 101.375 171.761719 100.855469 170.652344 100.277344 C 169.546875 99.703125 168.46875 99.074219 167.421875 98.390625 C 166.375 97.707031 165.367188 96.976562 164.390625 96.195312 C 163.417969 95.414062 162.484375 94.585938 161.589844 93.714844 C 160.699219 92.839844 159.847656 91.925781 159.046875 90.96875 C 158.242188 90.011719 157.488281 89.019531 156.78125 87.988281 C 156.078125 86.960938 155.421875 85.898438 154.820312 84.800781 C 154.222656 83.707031 153.675781 82.585938 153.183594 81.4375 C 152.691406 80.289062 152.257812 79.121094 151.882812 77.929688 C 151.507812 76.738281 151.191406 75.53125 150.933594 74.308594 C 150.675781 73.085938 150.476562 71.855469 150.339844 70.613281 C 150.203125 69.371094 150.128906 68.128906 150.113281 66.878906 C 150.101562 65.628906 150.148438 64.382812 150.257812 63.136719 C 150.363281 61.894531 150.535156 60.660156 150.761719 59.429688 C 150.992188 58.203125 151.28125 56.988281 151.632812 55.789062 C 151.980469 54.589844 152.386719 53.414062 152.851562 52.253906 C 153.316406 51.09375 153.835938 49.960938 154.414062 48.851562 C 154.988281 47.746094 155.617188 46.667969 156.300781 45.621094 C 156.980469 44.574219 157.714844 43.5625 158.496094 42.589844 C 159.277344 41.617188 160.105469 40.683594 160.976562 39.789062 C 161.847656 38.894531 162.765625 38.046875 163.71875 37.246094 C 164.675781 36.441406 165.671875 35.6875 166.699219 34.980469 C 167.730469 34.277344 168.792969 33.621094 169.886719 33.019531 C 170.984375 32.421875 172.105469 31.875 173.253906 31.382812 C 174.402344 30.890625 175.570312 30.457031 176.761719 30.082031 C 177.953125 29.707031 179.160156 29.390625 180.382812 29.132812 C 181.605469 28.875 182.835938 28.675781 184.078125 28.539062 C 185.316406 28.40625 186.5625 28.328125 187.8125 28.316406 C 189.0625 28.300781 190.308594 28.347656 191.550781 28.457031 C 192.796875 28.5625 194.03125 28.734375 195.257812 28.964844 C 196.488281 29.191406 197.699219 29.480469 198.898438 29.832031 C 200.097656 30.179688 201.277344 30.585938 202.4375 31.050781 C 203.597656 31.515625 204.730469 32.039062 205.839844 32.613281 C 206.945312 33.191406 208.023438 33.820312 209.070312 34.5 C 210.117188 35.183594 211.125 35.914062 212.101562 36.695312 Z M 212.101562 36.695312 " fill-opacity="1" fill-rule="nonzero"/><path fill="#d69125" d="M 11.65625 127.921875 C 13.160156 124.542969 14.710938 121.328125 16.292969 118.25 L 8.277344 113.238281 L 2.210938 122.945312 L 11.371094 128.667969 C 11.464844 128.417969 11.546875 128.171875 11.65625 127.921875 Z M 11.65625 127.921875 " fill-opacity="1" fill-rule="nonzero"/><path fill="#d69125" d="M 120.695312 117.128906 C 125.902344 121.398438 133.589844 121.238281 138.609375 116.484375 C 142.199219 113.074219 143.5 108.175781 142.496094 103.675781 C 141.980469 101.363281 140.867188 99.152344 139.117188 97.308594 C 138.625 96.804688 132.832031 90.707031 123.199219 84.398438 C 122.847656 84.171875 122.484375 83.945312 122.125 83.71875 C 112.570312 77.683594 99.304688 71.378906 83.261719 71.304688 C 71.351562 71.230469 58.152344 75.238281 46.363281 84.722656 C 36.375 92.707031 27.308594 104.222656 19.183594 120.058594 C 17.675781 122.992188 16.195312 126.0625 14.753906 129.304688 C 14.578125 129.699219 14.429688 130.097656 14.292969 130.496094 C 12.082031 137.054688 15.1875 144.339844 21.636719 147.207031 C 23.429688 148.003906 25.300781 148.378906 27.140625 148.378906 C 30.683594 148.378906 34.101562 146.953125 36.636719 144.457031 C 37.820312 143.296875 38.828125 141.925781 39.542969 140.320312 C 40.449219 138.277344 41.359375 136.34375 42.277344 134.488281 C 49.414062 120.011719 56.75 111.109375 63.265625 105.933594 C 70.679688 100.121094 76.933594 98.5 83.261719 98.429688 C 84.851562 98.414062 86.460938 98.539062 88.074219 98.78125 C 95.3125 99.867188 102.605469 103.300781 108.363281 107.105469 C 111.867188 109.394531 114.769531 111.734375 116.71875 113.441406 C 117.695312 114.292969 118.433594 114.988281 118.898438 115.441406 C 119.132812 115.664062 119.292969 115.828125 119.382812 115.921875 C 119.402344 115.941406 119.421875 115.957031 119.433594 115.96875 L 119.433594 115.972656 C 119.832031 116.394531 120.257812 116.769531 120.695312 117.128906 Z M 120.695312 117.128906 " fill-opacity="1" fill-rule="nonzero"/><path fill="#d69125" d="M 343.59375 322.988281 C 329.605469 315.445312 332.15625 303.023438 318.164062 299.253906 C 304.175781 295.484375 301.226562 287.339844 292.480469 283.570312 C 283.738281 279.800781 284.824219 262.832031 266.25 262.832031 C 262.105469 262.832031 257.921875 264.339844 253.78125 266.675781 L 172.976562 216.171875 C 175.367188 211.246094 174.625 205.148438 170.636719 200.9375 C 149.167969 178.09375 144.894531 156.835938 144.785156 141.441406 C 144.785156 140.289062 144.816406 139.183594 144.867188 138.105469 C 145.527344 137.300781 146.195312 136.492188 146.828125 135.714844 C 159.480469 122.90625 162.019531 101.804688 148.683594 91.722656 C 143.480469 87.785156 136.460938 84.953125 128.644531 84.03125 C 135.234375 88.742188 139.679688 93.03125 141.441406 94.835938 L 141.460938 94.855469 L 141.578125 94.976562 C 144.765625 98.335938 146.296875 102.675781 146.210938 106.980469 C 146.121094 111.355469 144.359375 115.699219 140.941406 118.941406 C 137.773438 121.945312 133.632812 123.59375 129.277344 123.59375 C 125.902344 123.59375 122.613281 122.5625 119.84375 120.707031 C 118.808594 120.015625 117.839844 119.21875 116.976562 118.308594 L 116.5625 117.898438 C 116.097656 117.453125 115.402344 116.796875 114.484375 115.992188 C 112.769531 114.488281 109.992188 112.214844 106.511719 109.945312 C 99.167969 105.09375 91.351562 102.226562 84.792969 101.890625 C 70.929688 115.183594 61.152344 127.046875 53.097656 141.253906 L 45.171875 136.300781 C 44.328125 138.015625 43.484375 139.800781 42.636719 141.703125 C 41.871094 143.429688 40.816406 144.957031 39.574219 146.296875 L 47.800781 151.4375 C 44.214844 158.953125 40.90625 167.214844 37.613281 176.671875 C 35.179688 186.265625 35.910156 193.875 38.574219 200.03125 C 38.625 200.222656 38.667969 200.386719 38.722656 200.605469 C 40.085938 206.042969 42.796875 219.148438 42.789062 235.210938 C 42.792969 247.921875 41.101562 262.414062 36.105469 276.632812 C 31.082031 290.886719 22.929688 304.890625 9.285156 317.683594 C 0.734375 325.675781 0.289062 339.089844 8.28125 347.632812 C 16.273438 356.183594 29.683594 356.628906 38.234375 348.640625 L 38.230469 348.636719 C 57.214844 330.914062 69.171875 310.484375 76.097656 290.667969 C 82.824219 271.460938 85.019531 252.839844 85.160156 236.824219 C 90.300781 242.347656 94.855469 248.5625 98.125 255.261719 C 101.757812 262.722656 103.917969 270.671875 103.933594 279.851562 C 103.898438 292.441406 99.847656 308.105469 86.425781 328.09375 C 79.882812 337.800781 82.445312 350.972656 92.152344 357.515625 C 95.785156 359.960938 99.902344 361.132812 103.976562 361.132812 C 110.789062 361.136719 117.476562 357.859375 121.570312 351.785156 C 138.644531 326.542969 146.351562 302.152344 146.316406 279.851562 C 146.34375 261.085938 140.875 244.394531 133.09375 230.769531 C 124.746094 216.1875 114.023438 204.832031 103.722656 196.085938 C 104.914062 193.625 106.164062 191.175781 107.515625 188.757812 L 143.742188 211.398438 C 145.964844 214.132812 148.355469 216.863281 150.933594 219.578125 C 153.601562 222.394531 157.191406 223.816406 160.789062 223.816406 C 161.613281 223.816406 162.4375 223.742188 163.25 223.589844 L 243.59375 273.804688 C 232.898438 282.429688 222.890625 292.996094 214.953125 292.996094 C 201.546875 292.996094 202.292969 313.941406 184.804688 319.597656 C 167.320312 325.253906 156.660156 331.960938 153.164062 346.410156 C 151.019531 355.265625 370.59375 362.121094 374.671875 342.011719 C 363.015625 326.929688 357.585938 330.527344 343.59375 322.988281 Z M 113.445312 178.964844 C 115.898438 175.179688 118.484375 171.480469 121.125 167.871094 C 122.90625 174.558594 125.476562 181.5625 129.039062 188.710938 Z M 113.445312 178.964844 " fill-opacity="1" fill-rule="nonzero"/></svg>