<svg xmlns="http://www.w3.org/2000/svg" xmlns:xlink="http://www.w3.org/1999/xlink" width="500" zoomAndPan="magnify" viewBox="0 0 375 374.999991" height="500" preserveAspectRatio="xMidYMid meet" version="1.0"><defs><clipPath id="8c891e447c"><path d="M 2 9.375 L 375 9.375 L 375 374 L 2 374 Z M 2 9.375 " clip-rule="nonzero"/></clipPath></defs><g clip-path="url(#8c891e447c)"><path fill="#000000" d="M 101.226562 328.316406 L 106.980469 338.492188 C 106.984375 338.5 106.988281 338.503906 106.988281 338.507812 C 111.300781 346.183594 108.566406 355.980469 100.941406 360.289062 L 81.953125 371.066406 C 81.945312 371.066406 81.941406 371.070312 81.933594 371.074219 C 74.265625 375.390625 64.480469 372.65625 60.171875 365.019531 L 4.328125 266.238281 C -0.0234375 258.558594 2.710938 248.753906 10.34375 244.4375 L 29.359375 233.664062 L 29.363281 233.660156 C 36.992188 229.347656 46.78125 232.058594 51.125 239.699219 L 51.132812 239.710938 L 55.882812 248.109375 L 106.242188 218.921875 C 121.011719 210.371094 136.089844 204.742188 152.308594 210.015625 C 168.316406 215.214844 194.457031 226.410156 221.132812 231.234375 C 221.398438 231.285156 221.660156 231.347656 221.914062 231.429688 C 234.992188 235.671875 242.957031 248.894531 239.386719 262.183594 C 238.675781 264.835938 237.667969 267.242188 236.378906 269.375 C 239.921875 268.550781 243.371094 267.179688 246.75 265.207031 L 314.464844 225.730469 C 338.558594 211.679688 354.609375 213.070312 363.699219 219.179688 C 371.429688 224.371094 374.996094 233.238281 374.765625 241.9375 C 374.53125 250.71875 370.375 259.121094 363.496094 263.359375 L 240.621094 339.089844 C 227.871094 346.96875 213.90625 348.8125 199.4375 344.949219 L 199.429688 344.949219 C 199.429688 344.949219 112.703125 321.679688 112.703125 321.679688 Z M 96.515625 344.40625 L 40.679688 245.648438 L 40.675781 245.636719 C 39.589844 243.746094 37.167969 243.0625 35.273438 244.136719 L 16.265625 254.90625 L 16.257812 254.910156 C 14.371094 255.976562 13.707031 258.40625 14.78125 260.308594 L 14.785156 260.3125 L 70.632812 359.09375 L 70.632812 359.097656 C 71.703125 360.996094 74.136719 361.660156 76.039062 360.59375 L 95.019531 349.824219 L 95.023438 349.820312 C 96.921875 348.75 97.585938 346.3125 96.515625 344.40625 Z M 95.308594 317.847656 L 108.851562 310.019531 C 110.230469 309.21875 111.871094 309.003906 113.410156 309.417969 L 202.535156 333.328125 C 213.695312 336.308594 224.476562 334.929688 234.3125 328.851562 L 234.316406 328.851562 L 357.195312 253.117188 C 360.558594 251.042969 362.34375 246.890625 362.695312 242.621094 C 363.238281 236.0625 360.136719 228.839844 352.03125 227.136719 C 344.746094 225.609375 334.476562 227.980469 320.511719 236.125 L 252.800781 275.601562 C 242.089844 281.847656 230.867188 283.570312 218.636719 281.621094 C 218.628906 281.621094 218.621094 281.621094 218.613281 281.617188 C 218.613281 281.617188 210.210938 280.25 210.210938 280.25 C 210.128906 280.238281 210.046875 280.222656 209.96875 280.203125 C 209.964844 280.203125 209.960938 280.203125 209.960938 280.203125 C 194.691406 277.066406 180.53125 272.449219 164.820312 268.222656 C 161.617188 267.359375 159.714844 264.058594 160.574219 260.851562 C 161.4375 257.644531 164.734375 255.742188 167.9375 256.605469 C 183.324219 260.742188 197.195312 265.28125 212.132812 268.371094 C 220.125 269.269531 225.945312 265.910156 227.78125 259.066406 L 227.78125 259.0625 C 229.648438 252.117188 225.316406 245.363281 218.5625 242.992188 C 191.4375 238.019531 164.882812 226.742188 148.601562 221.457031 L 148.597656 221.457031 C 135.746094 217.277344 123.960938 222.558594 112.261719 229.332031 L 61.800781 258.578125 Z M 32.929688 256.394531 C 37.238281 255.75 41.242188 258.730469 41.882812 263.046875 C 42.5 267.359375 39.523438 271.390625 35.214844 272.007812 C 30.902344 272.652344 26.902344 269.644531 26.257812 265.332031 C 25.644531 261.015625 28.621094 257.011719 32.929688 256.394531 Z M 145.152344 116.039062 C 139.328125 110.5625 135.605469 103.785156 135.605469 95.304688 L 135.605469 57.074219 C 135.605469 49.335938 141.914062 43.019531 149.644531 43.019531 L 200.859375 43.019531 L 200.859375 32.246094 C 200.859375 19.71875 211.121094 9.441406 223.636719 9.441406 L 273.695312 9.441406 C 286.230469 9.441406 296.472656 19.71875 296.472656 32.246094 L 296.472656 43.019531 L 347.699219 43.019531 C 355.410156 43.019531 361.726562 49.332031 361.726562 57.074219 L 361.726562 95.304688 C 361.726562 103.785156 358.003906 110.558594 352.191406 116.035156 L 352.191406 183.824219 C 352.191406 195.746094 342.441406 205.515625 330.507812 205.515625 L 166.824219 205.515625 C 154.910156 205.515625 145.152344 195.75 145.152344 183.824219 Z M 186.757812 55.046875 L 149.644531 55.046875 C 148.53125 55.046875 147.621094 55.957031 147.621094 57.074219 L 147.621094 95.304688 C 147.621094 100.980469 150.746094 105.199219 154.96875 108.660156 C 154.972656 108.664062 154.980469 108.667969 154.984375 108.671875 C 156.3125 109.769531 157.738281 110.773438 159.25 111.734375 C 171.496094 119.484375 196.699219 123.902344 224.628906 125.535156 C 228.335938 115.890625 237.679688 109.015625 248.664062 109.015625 C 259.664062 109.015625 268.992188 115.886719 272.699219 125.523438 C 300.679688 123.875 325.90625 119.449219 338.078125 111.734375 C 339.59375 110.773438 341.035156 109.769531 342.363281 108.671875 L 342.371094 108.664062 C 346.585938 105.203125 349.710938 100.984375 349.710938 95.304688 L 349.710938 57.074219 C 349.710938 55.960938 348.808594 55.046875 347.699219 55.046875 L 310.574219 55.046875 L 310.574219 75.167969 C 310.574219 84.015625 303.347656 91.265625 294.511719 91.265625 L 202.835938 91.265625 C 194 91.265625 186.757812 84.015625 186.757812 75.167969 Z M 223.066406 137.488281 C 195.992188 135.804688 171.433594 131.289062 157.171875 124.308594 L 157.171875 183.824219 C 157.171875 189.136719 161.515625 193.484375 166.824219 193.484375 L 330.507812 193.484375 C 335.824219 193.484375 340.175781 189.136719 340.175781 183.824219 L 340.175781 124.300781 C 325.960938 131.253906 301.382812 135.78125 274.269531 137.476562 C 272.917969 150.433594 261.96875 160.539062 248.664062 160.539062 C 235.367188 160.539062 224.421875 150.441406 223.066406 137.488281 Z M 298.558594 55.046875 L 198.773438 55.046875 L 198.773438 75.167969 C 198.773438 77.402344 200.605469 79.238281 202.835938 79.238281 L 294.511719 79.238281 C 296.738281 79.238281 298.558594 77.402344 298.558594 75.167969 Z M 284.457031 43.019531 L 284.457031 32.246094 C 284.457031 26.328125 279.617188 21.472656 273.695312 21.472656 L 223.636719 21.472656 C 217.722656 21.472656 212.875 26.328125 212.875 32.246094 L 212.875 43.019531 L 215.703125 43.019531 L 215.703125 32.246094 C 215.703125 28.015625 219.410156 24.304688 223.636719 24.304688 L 273.695312 24.304688 C 277.980469 24.304688 281.628906 28.015625 281.628906 32.246094 L 281.628906 43.019531 Z M 227.722656 43.019531 L 269.609375 43.019531 L 269.609375 36.332031 L 227.722656 36.332031 Z M 234.941406 134.769531 C 234.941406 142.359375 241.085938 148.507812 248.664062 148.507812 C 256.246094 148.507812 262.390625 142.359375 262.390625 134.769531 C 262.390625 127.210938 256.273438 121.042969 248.664062 121.042969 C 241.066406 121.042969 234.941406 127.210938 234.941406 134.769531 Z M 234.941406 134.769531 " fill-opacity="1" fill-rule="evenodd"/></g></svg>