<svg xmlns="http://www.w3.org/2000/svg" xmlns:xlink="http://www.w3.org/1999/xlink" width="500" zoomAndPan="magnify" viewBox="0 0 375 374.999991" height="500" preserveAspectRatio="xMidYMid meet" version="1.0"><defs><clipPath id="af6c18dab9"><path d="M 0 182 L 248 182 L 248 298.40625 L 0 298.40625 Z M 0 182 " clip-rule="nonzero"/></clipPath><clipPath id="b9f58697e6"><path d="M 254 76.40625 L 375 76.40625 L 375 157 L 254 157 Z M 254 76.40625 " clip-rule="nonzero"/></clipPath></defs><rect x="-37.5" width="450" fill="#ffffff" y="-37.499999" height="449.999989" fill-opacity="1"/><rect x="-37.5" width="450" fill="#ffffff" y="-37.499999" height="449.999989" fill-opacity="1"/><path fill="#d69125" d="M 258.023438 144.636719 C 257.792969 144.578125 257.558594 144.625 257.371094 144.761719 C 248.140625 151.378906 245.445312 166.332031 245.328125 167.007812 C 243.085938 185.144531 239.179688 188.375 238.761719 188.671875 C 226.726562 192.425781 205.058594 208.414062 204.144531 209.09375 C 203.839844 209.320312 203.738281 209.726562 203.894531 210.070312 C 204.027344 210.355469 204.3125 210.535156 204.617188 210.535156 C 204.679688 210.535156 204.738281 210.527344 204.796875 210.511719 L 251.511719 199.851562 C 251.792969 199.789062 252.019531 199.570312 252.101562 199.289062 C 252.382812 198.265625 259.082031 174.175781 259.386719 167.0625 C 259.667969 160.449219 265.195312 156.378906 265.253906 156.335938 C 265.496094 156.160156 265.621094 155.867188 265.578125 155.570312 C 264.148438 146.230469 258.269531 144.695312 258.023438 144.636719 " fill-opacity="1" fill-rule="nonzero"/><g clip-path="url(#af6c18dab9)"><path fill="#d69125" d="M 246.160156 202.316406 C 228.300781 209.386719 203.910156 212.347656 196.777344 213.097656 C 206.390625 203.144531 229.039062 192.859375 229.277344 192.753906 C 229.617188 192.601562 229.796875 192.242188 229.738281 191.882812 C 229.675781 191.523438 229.375 191.253906 229.011719 191.226562 C 212.335938 190.027344 172.824219 182.992188 172.40625 182.917969 C 169.195312 182.429688 165.84375 182.1875 162.453125 182.1875 C 124.71875 182.1875 82.570312 212.746094 53.863281 238.382812 C 22.824219 266.101562 0.367188 294.191406 0.148438 294.476562 C 0.03125 294.613281 -0.03125 294.789062 -0.03125 294.96875 C -0.03125 296.570312 0.980469 298.480469 5.8125 298.480469 C 5.816406 298.480469 5.816406 298.480469 5.816406 298.480469 C 7.722656 298.480469 9.480469 298.179688 9.855469 298.109375 C 122.476562 295.851562 219.035156 265.273438 220.011719 264.960938 C 241.964844 257.414062 245.132812 242.320312 245.269531 241.570312 L 247.246094 203.097656 C 247.257812 202.828125 247.136719 202.566406 246.914062 202.410156 C 246.691406 202.253906 246.402344 202.214844 246.160156 202.316406 " fill-opacity="1" fill-rule="nonzero"/></g><g clip-path="url(#b9f58697e6)"><path fill="#d69125" d="M 372.796875 84.222656 C 370.363281 80.238281 368.054688 76.472656 362.265625 76.472656 C 354.273438 76.472656 339.714844 83.613281 310.292969 101.972656 L 283.984375 119.964844 L 255.261719 139.917969 C 254.972656 140.121094 254.847656 140.484375 254.960938 140.820312 C 255.066406 141.152344 255.417969 141.386719 255.730469 141.371094 L 255.898438 141.371094 C 264.941406 141.371094 269.570312 156.226562 269.613281 156.378906 C 269.683594 156.601562 269.847656 156.785156 270.070312 156.878906 C 270.167969 156.917969 270.269531 156.941406 270.378906 156.941406 C 270.503906 156.941406 270.625 156.910156 270.738281 156.855469 C 271.089844 156.675781 306.035156 138.957031 336.832031 121.464844 C 360.105469 108.246094 372.285156 100.113281 374.292969 92.335938 C 374.984375 89.652344 374.5 87 372.796875 84.222656 " fill-opacity="1" fill-rule="nonzero"/></g></svg>